<svg xmlns="http://www.w3.org/2000/svg" viewBox="0 15.5 189.10000610351562 37.45000076293945" data-asc="1.05" width="189.10000610351562" height="37.45000076293945"><defs/><g><g fill="#50177f"><g transform="translate(0, 0)"><path d="M0 35Q0 29.85 2.33 25.77Q4.65 21.70 8.68 19.42Q12.70 17.15 17.70 17.15Q23.55 17.15 27.95 20.15Q32.35 23.15 34.10 28.45L26.05 28.45Q24.85 25.95 22.68 24.70Q20.50 23.45 17.65 23.45Q14.60 23.45 12.23 24.88Q9.85 26.30 8.53 28.90Q7.20 31.50 7.20 35Q7.20 38.45 8.53 41.08Q9.85 43.70 12.23 45.13Q14.60 46.55 17.65 46.55Q20.50 46.55 22.68 45.27Q24.85 44 26.05 41.50L34.10 41.50Q32.35 46.85 27.98 49.83Q23.60 52.80 17.70 52.80Q12.70 52.80 8.68 50.52Q4.65 48.25 2.33 44.20Q0 40.15 0 35ZM52.40 52.95Q48.40 52.95 45.20 51.17Q42.00 49.40 40.18 46.15Q38.35 42.90 38.35 38.65Q38.35 34.40 40.23 31.15Q42.10 27.90 45.35 26.13Q48.60 24.35 52.60 24.35Q56.60 24.35 59.85 26.13Q63.10 27.90 64.98 31.15Q66.85 34.40 66.85 38.65Q66.85 42.90 64.93 46.15Q63.00 49.40 59.73 51.17Q56.45 52.95 52.40 52.95M52.40 46.85Q54.30 46.85 55.98 45.92Q57.65 45 58.65 43.15Q59.65 41.30 59.65 38.65Q59.65 34.70 57.58 32.58Q55.50 30.45 52.50 30.45Q49.50 30.45 47.48 32.58Q45.45 34.70 45.45 38.65Q45.45 42.60 47.43 44.73Q49.40 46.85 52.40 46.85ZM79.00 15.50L79.00 52.50L72.00 52.50L72.00 15.50L79.00 15.50ZM92.90 15.50L92.90 52.50L85.90 52.50L85.90 15.50L92.90 15.50ZM98.00 38.55Q98.00 34.35 99.68 31.10Q101.35 27.85 104.23 26.10Q107.10 24.35 110.65 24.35Q113.75 24.35 116.08 25.60Q118.40 26.85 119.80 28.75L119.80 24.80L126.85 24.80L126.85 52.50L119.80 52.50L119.80 48.45Q118.45 50.40 116.08 51.67Q113.70 52.95 110.60 52.95Q107.10 52.95 104.23 51.15Q101.35 49.35 99.68 46.08Q98.00 42.80 98.00 38.55M119.80 38.65Q119.80 36.10 118.80 34.27Q117.80 32.45 116.10 31.47Q114.40 30.50 112.45 30.50Q110.50 30.50 108.85 31.45Q107.20 32.40 106.18 34.22Q105.15 36.05 105.15 38.55Q105.15 41.05 106.18 42.92Q107.20 44.80 108.88 45.80Q110.55 46.80 112.45 46.80Q114.40 46.80 116.10 45.83Q117.80 44.85 118.80 43.02Q119.80 41.20 119.80 38.65ZM140.70 28.85Q142.05 26.85 144.43 25.60Q146.80 24.35 149.85 24.35Q153.40 24.35 156.28 26.10Q159.15 27.85 160.83 31.07Q162.50 34.30 162.50 38.55Q162.50 42.80 160.83 46.08Q159.15 49.35 156.28 51.15Q153.40 52.95 149.85 52.95Q146.75 52.95 144.43 51.73Q142.10 50.50 140.70 48.55L140.70 52.50L133.70 52.50L133.70 15.50L140.70 15.50L140.70 28.85M155.35 38.55Q155.35 36.05 154.33 34.22Q153.30 32.40 151.63 31.45Q149.95 30.50 148.00 30.50Q146.10 30.50 144.43 31.47Q142.75 32.45 141.73 34.30Q140.70 36.15 140.70 38.65Q140.70 41.15 141.73 43Q142.75 44.85 144.43 45.83Q146.10 46.80 148.00 46.80Q149.95 46.80 151.63 45.80Q153.30 44.80 154.33 42.95Q155.35 41.10 155.35 38.55ZM178.20 52.95Q174.80 52.95 172.10 51.73Q169.40 50.50 167.83 48.40Q166.25 46.30 166.10 43.75L173.15 43.75Q173.35 45.35 174.73 46.40Q176.10 47.45 178.15 47.45Q180.15 47.45 181.28 46.65Q182.40 45.85 182.40 44.60Q182.40 43.25 181.03 42.58Q179.65 41.90 176.65 41.10Q173.55 40.35 171.58 39.55Q169.60 38.75 168.18 37.10Q166.75 35.45 166.75 32.65Q166.75 30.35 168.08 28.45Q169.40 26.55 171.88 25.45Q174.35 24.35 177.70 24.35Q182.65 24.35 185.60 26.82Q188.55 29.30 188.85 33.50L182.15 33.50Q182.00 31.85 180.78 30.88Q179.55 29.90 177.50 29.90Q175.60 29.90 174.58 30.60Q173.55 31.30 173.55 32.55Q173.55 33.95 174.95 34.67Q176.35 35.40 179.30 36.15Q182.30 36.90 184.25 37.70Q186.20 38.50 187.63 40.17Q189.05 41.85 189.10 44.60Q189.10 47 187.78 48.90Q186.45 50.80 183.98 51.88Q181.50 52.95 178.20 52.95Z"/></g></g></g></svg>